<?xml version="1.0" encoding="utf-8"?>
<svg xmlns="http://www.w3.org/2000/svg" viewBox="-0.8232 -1.0521 500.9763 501.0601" width="500.976px" height="501.06px" preserveAspectRatio="none"><g id="object-1" transform="matrix(1, 0, 0, 1, 0, 1.1368683772161603e-13)"><path d="M 332.616 -1.048 C 324.086 -1.182 315.454 1.959 308.739 8.372 C 295.508 21.265 295.238 42.411 308.102 55.704 L 350.716 99.163 L 197.919 99.163 C 179.416 99.163 164.338 114.163 164.338 132.568 C 164.338 150.972 179.416 165.97 197.919 165.97 L 350.716 165.97 L 308.102 209.428 C 296.147 221.688 295.508 240.862 306.119 253.789 C 328.182 240.862 353.236 233.714 378.791 233.045 L 454.215 155.916 C 466.942 142.889 466.942 122.279 454.215 109.218 L 356.224 9.006 C 349.81 2.493 341.28 -0.914 332.616 -1.048 Z M 130.219 199.375 C 121.69 199.509 113.161 202.916 106.613 209.428 L 8.62 309.64 C -3.971 322.7 -3.971 343.311 8.62 356.339 L 106.613 456.549 C 119.609 469.745 140.832 470.01 154.097 457.085 C 167.462 444.291 167.73 423.144 154.736 409.85 L 112.254 366.392 L 232.676 366.392 C 235.296 342.508 243.691 319.559 257.057 299.585 L 112.254 299.585 L 154.736 256.127 C 167.73 242.833 167.462 221.688 154.097 208.794 C 147.547 202.382 138.883 199.241 130.219 199.375 Z M 130.219 199.375" fill-rule="evenodd" style="stroke-width: 1; fill: rgb(255, 255, 255);"/><path d="M 382.618 266.183 C 317.671 266.183 265.083 318.525 265.083 383.095 C 265.083 447.698 317.671 500.008 382.618 500.008 C 447.53 500.008 500.153 447.698 500.153 383.095 C 500.153 318.525 447.53 266.183 382.618 266.183 Z M 298.664 365.358 L 466.572 365.358 L 466.572 399.797 L 298.664 399.797 L 298.664 365.358 Z M 298.664 365.358" style="stroke-width: 1; fill: rgb(255, 0, 12);"/></g></svg>