<?xml version="1.0" encoding="utf-8"?>
<svg xmlns="http://www.w3.org/2000/svg" viewBox="0 0 500 500" xmlns:bx="https://boxy-svg.com" width="500px" height="500px"><defs><bx:export><bx:file format="svg" href="#object-0"/><bx:file format="svg" path="Untitled 2.svg"/></bx:export></defs><g id="object-0" transform="matrix(1, 0, 0, 1, 864.490967, -29.510736)"><g fill="#222222" fill-rule="evenodd" transform="matrix(31.147188, 0, 0, 35.594063, -2.101158, -34.405689)" style=""><path d="m 12.011719 1 c 0.257812 0.003906 0.511719 0.105469 0.703125 0.300781 l 2.917968 3 c 0.378907 0.390625 0.378907 1.007813 0 1.398438 l -2.917968 3 c -0.382813 0.394531 -1.015625 0.402343 -1.414063 0.015625 c -0.394531 -0.382813 -0.402343 -1.015625 -0.019531 -1.414063 l 1.269531 -1.300781 h -6.550781 c -1.332031 0 -1.332031 -2 0 -2 h 6.550781 l -1.269531 -1.300781 c -0.382812 -0.398438 -0.375 -1.03125 0.019531 -1.417969 c 0.199219 -0.191406 0.457031 -0.285156 0.710938 -0.28125 z m 0 0" style="fill: rgb(255, 255, 255);"/><path d="m 3.984375 7 c -0.253906 0.003906 -0.507813 0.105469 -0.703125 0.300781 l -2.917969 3 c -0.3749998 0.390625 -0.3749998 1.007813 0 1.398438 l 2.917969 3 c 0.386719 0.394531 1.019531 0.402343 1.414062 0.015625 c 0.398438 -0.382813 0.40625 -1.015625 0.019532 -1.414063 l -1.265625 -1.300781 h 6.550781 c 1.332031 0 1.332031 -2 0 -2 h -6.550781 l 1.265625 -1.300781 c 0.386718 -0.398438 0.378906 -1.03125 -0.019532 -1.417969 c -0.195312 -0.191406 -0.453124 -0.285156 -0.710937 -0.28125 z m 0 0" style="fill: rgb(255, 255, 255);"/></g></g><g><g fill="#2e3436" transform="matrix(31.161707, 0, 0, 33.288219, 0.371357, -32.603901)" style=""><path d="m 12 1 c -0.265625 0 -0.519531 0.105469 -0.707031 0.292969 c -0.390625 0.390625 -0.390625 1.023437 0 1.414062 l 1.292969 1.292969 h -7.585938 c -0.550781 0 -1 0.449219 -1 1 s 0.449219 1 1 1 h 7.585938 l -1.292969 1.292969 c -0.390625 0.390625 -0.390625 1.023437 0 1.414062 s 1.023437 0.390625 1.414062 0 l 3 -3 c 0.390625 -0.390625 0.390625 -1.023437 0 -1.414062 l -3 -3 c -0.1875 -0.1875 -0.441406 -0.292969 -0.707031 -0.292969 z m -8 6 c -0.253906 0 -0.511719 0.097656 -0.707031 0.292969 l -3 3 c -0.3906252 0.390625 -0.3906252 1.023437 0 1.414062 l 3 3 c 0.1875 0.1875 0.441406 0.292969 0.707031 0.292969 s 0.519531 -0.105469 0.707031 -0.292969 c 0.390625 -0.390625 0.390625 -1.023437 0 -1.414062 l -1.292969 -1.292969 h 5.585938 v -2 h -5.585938 l 1.292969 -1.292969 c 0.390625 -0.390625 0.390625 -1.023437 0 -1.414062 c -0.195312 -0.195313 -0.449219 -0.292969 -0.707031 -0.292969 z m 0 0" style="fill: rgb(255, 255, 255);"/><path d="m 15 10 c 0.265625 0 0.519531 0.105469 0.707031 0.292969 c 0.390625 0.390625 0.390625 1.023437 0 1.414062 l -1.292969 1.292969 l 1.292969 1.292969 c 0.390625 0.390625 0.390625 1.023437 0 1.414062 s -1.023437 0.390625 -1.414062 0 l -1.292969 -1.292969 l -1.292969 1.292969 c -0.390625 0.390625 -1.023437 0.390625 -1.414062 0 s -0.390625 -1.023437 0 -1.414062 l 1.292969 -1.292969 l -1.292969 -1.292969 c -0.390625 -0.390625 -0.390625 -1.023437 0 -1.414062 c 0.1875 -0.1875 0.441406 -0.292969 0.707031 -0.292969 s 0.519531 0.105469 0.707031 0.292969 l 1.292969 1.292969 l 1.292969 -1.292969 c 0.1875 -0.1875 0.441406 -0.292969 0.707031 -0.292969 z m 0 0" style="fill: rgb(255, 0, 0);"/></g></g></svg>