<?xml version="1.0" encoding="utf-8"?>
<svg xmlns="http://www.w3.org/2000/svg" viewBox="348.5966 -117.0842 120.5885 112.5917" width="120.588px" height="112.592px" preserveAspectRatio="none"><g id="object-6" transform="matrix(7.615332126617432, 0, 0, 8.042160987854004, 347.9718933105469, -125.12544250488283)"><path d="m 12.011719 1 c 0.257812 0.003906 0.511719 0.105469 0.703125 0.300781 l 2.917968 3 c 0.378907 0.390625 0.378907 1.007813 0 1.398438 l -2.917968 3 c -0.382813 0.394531 -1.015625 0.402343 -1.414063 0.015625 c -0.394531 -0.382813 -0.402343 -1.015625 -0.019531 -1.414063 l 1.269531 -1.300781 h -6.550781 c -1.332031 0 -1.332031 -2 0 -2 h 6.550781 l -1.269531 -1.300781 c -0.382812 -0.398438 -0.375 -1.03125 0.019531 -1.417969 c 0.199219 -0.191406 0.457031 -0.285156 0.710938 -0.28125 z m 0 0" style="fill: rgb(255, 255, 255); fill-opacity: 0.35;"/><path d="m 3.984375 7 c -0.253906 0.003906 -0.507813 0.105469 -0.703125 0.300781 l -2.917969 3 c -0.3749998 0.390625 -0.3749998 1.007813 0 1.398438 l 2.917969 3 c 0.386719 0.394531 1.019531 0.402343 1.414062 0.015625 c 0.398438 -0.382813 0.40625 -1.015625 0.019532 -1.414063 l -1.265625 -1.300781 h 6.550781 c 1.332031 0 1.332031 -2 0 -2 h -6.550781 l 1.265625 -1.300781 c 0.386718 -0.398438 0.378906 -1.03125 -0.019532 -1.417969 c -0.195312 -0.191406 -0.453124 -0.285156 -0.710937 -0.28125 z m 0 0" style="fill: rgb(255, 255, 255); fill-opacity: 0.35;"/></g></svg>