<?xml version="1.0" encoding="utf-8"?>
<svg xmlns="http://www.w3.org/2000/svg" viewBox="774.23 236.289 236.75 239.472" width="236.75px" height="239.472px"><g id="object-5" transform="matrix(1, 0, 0, 1, 7.105427357601002e-15, 0)"><g><path d="M 931.821 236.291 C 927.79 236.227 923.696 237.727 920.538 240.777 C 914.269 246.955 914.158 257.061 920.221 263.415 L 940.375 284.185 L 868.152 284.185 C 859.407 284.185 852.282 291.353 852.282 300.149 C 852.282 308.946 859.407 316.114 868.152 316.114 L 940.375 316.114 L 920.221 336.884 C 914.587 342.743 914.269 351.907 919.3 358.085 C 929.711 351.907 941.55 348.474 953.642 348.171 L 989.286 311.309 C 995.301 305.082 995.301 295.232 989.286 288.99 L 942.978 241.096 C 939.947 237.983 935.916 236.355 931.821 236.291 Z M 836.158 332.079 C 832.143 332.143 828.112 333.771 825.002 336.884 L 778.694 384.778 C 772.742 391.02 772.742 400.87 778.694 407.097 L 825.002 454.991 C 831.143 461.297 841.189 461.424 847.442 455.246 C 853.774 449.132 853.901 439.026 847.759 432.672 L 827.668 411.902 L 884.577 411.902 C 885.815 400.487 889.782 389.52 896.114 379.973 L 827.668 379.973 L 847.759 359.203 C 853.901 352.849 853.774 342.743 847.442 336.565 C 844.347 333.515 840.253 332.015 836.158 332.079 Z M 836.158 332.079" fill-opacity="0.34902" fill-rule="evenodd" style="stroke-width: 1; fill: rgb(255, 255, 255);" id="object-3"/><path d="M 955.436 364.008 C 924.759 364.008 899.891 389.025 899.891 419.884 C 899.891 450.76 924.759 475.761 955.436 475.761 C 986.128 475.761 1010.98 450.76 1010.98 419.884 C 1010.98 389.025 986.128 364.008 955.436 364.008 Z M 915.761 411.407 L 995.11 411.407 L 995.11 427.867 L 915.761 427.867 L 915.761 411.407 Z M 915.761 411.407" style="stroke-width: 1; fill: rgb(255, 0, 0);" id="object-4"/></g></g></svg>